<svg xmlns="http://www.w3.org/2000/svg" viewBox="0 0 36.94 25.85"><g id="Layer_2" data-name="Layer 2"><g id="Layer_1-2" data-name="Layer 1"><g id="CC_Icon_V5" data-name="CC Icon V5"><path d="M23.9,4.34,36.64,11.4a.93.93,0,0,1-.11,1.43L14.32,25.67a1.36,1.36,0,0,1-1.35,0L.34,18.39a1,1,0,0,1-.15-1.33L22.55,4.34A1.31,1.31,0,0,1,23.9,4.34Z" opacity="0.29"/><path d="M23.93,4.07l12.64,7.28a.7.7,0,0,1,0,1.22L14.36,25.4a1.36,1.36,0,0,1-1.35,0L.38,18.12a.7.7,0,0,1,0-1.22L22.58,4.07A1.36,1.36,0,0,1,23.93,4.07Z" fill="#ccc" stroke="#999" stroke-miterlimit="10" stroke-width="0.03"/><path d="M9.81,23.58c.21.15,2.43,1.4,2.43,1.4L36.19,11.13,33.8,9.73Z" fill="#4d4d4d"/><path d="M2.91,15.42l-.84.48L13,22.14a1.84,1.84,0,0,0,1.23,0L34.66,10.23,32.71,9.09Z" opacity="0.13"/><path d="M.36,13.14,22.55.31a1.36,1.36,0,0,1,1.35,0L36.67,7.52a.79.79,0,0,1-.13,1.27L14.32,21.65a1.36,1.36,0,0,1-1.35,0L.36,14.37A.71.71,0,0,1,.36,13.14Z" fill="#fff"/><path d="M.39,13,22.58.18a1.36,1.36,0,0,1,1.35,0L36.57,7.46a.7.7,0,0,1,0,1.22L14.36,21.51a1.36,1.36,0,0,1-1.35,0L.39,14.24A.71.71,0,0,1,.39,13Z" fill="#65b1bc"/><polygon points="11.3 17.76 18.49 13.61 17.46 13.04 10.27 17.16 11.3 17.76" fill="#fff"/><polygon points="13 18.73 22.64 13.14 21.61 12.58 11.97 18.13 13 18.73" fill="#fff"/><polyline points="26.11 3.63 25.93 3.53 25.76 3.63" fill="none" stroke="#fff" stroke-miterlimit="10" stroke-width="0.07"/><line x1="25.4" y1="3.84" x2="22.71" y2="5.41" fill="none" stroke="#fff" stroke-miterlimit="10" stroke-width="0.07" stroke-dasharray="0.42 0.42"/><polyline points="22.53 5.51 22.36 5.61 22.53 5.71" fill="none" stroke="#fff" stroke-miterlimit="10" stroke-width="0.07"/><line x1="22.9" y1="5.92" x2="24.2" y2="6.67" fill="none" stroke="#fff" stroke-miterlimit="10" stroke-width="0.07" stroke-dasharray="0.43 0.43"/><polyline points="24.38 6.77 24.55 6.87 24.73 6.78" fill="none" stroke="#fff" stroke-miterlimit="10" stroke-width="0.07"/><line x1="25.1" y1="6.57" x2="27.87" y2="5.03" fill="none" stroke="#fff" stroke-miterlimit="10" stroke-width="0.07" stroke-dasharray="0.42 0.42"/><polyline points="28.05 4.92 28.23 4.83 28.05 4.73" fill="none" stroke="#fff" stroke-miterlimit="10" stroke-width="0.07"/><line x1="27.67" y1="4.51" x2="26.3" y2="3.74" fill="none" stroke="#fff" stroke-miterlimit="10" stroke-width="0.07" stroke-dasharray="0.45 0.45"/><path d="M4.8,13l3.93-2.2a1.12,1.12,0,0,1,1.08,0L12.2,12.2a.29.29,0,0,1,0,.5l-4,2.18a1.09,1.09,0,0,1-1.08,0L4.79,13.49A.27.27,0,0,1,4.8,13Z" fill="#dfdfdf"/><polygon points="7.2 12.84 5.44 13.88 5.49 13.9 7.25 12.87 7.2 12.84 7.2 12.84" fill="#999"/><polygon points="8.27 13.46 6.51 14.5 6.56 14.53 8.32 13.49 8.27 13.46 8.27 13.46" fill="#999"/><polygon points="10.2 11.06 8.44 12.1 8.49 12.12 10.25 11.09 10.2 11.06 10.2 11.06" fill="#999"/><polygon points="11.27 11.68 9.51 12.72 9.56 12.75 11.32 11.72 11.27 11.68 11.27 11.68" fill="#999"/><path d="M7.89,13.14a2.92,2.92,0,0,1-.68-.26c-.16-.11-.62-.57-.24-.84s1.46,0,1.59.14.3.33.39.37.67.15.84.39.35.5.19.69-.56.16-.7.14a3.29,3.29,0,0,1-.85-.17c-.11-.08-.31-.31-.4-.37Z" fill="none" stroke="#999" stroke-miterlimit="10" stroke-width="0.1" fill-rule="evenodd"/><path d="M24.57,6l.14-.07L24,5.54l-.11.06-.18-.09a.14.14,0,0,0,0-.13l.1-.06,1,.5L25,5.76l.23.12-.39.19Z" fill="#fff"/><path d="M25.2,5.7a1.15,1.15,0,0,0-.42-.47c-.12-.06-.21-.08-.27-.05s0,.07,0,.12l-.23,0c-.07-.09-.08-.16,0-.2a.75.75,0,0,1,.59.09,1.12,1.12,0,0,1,.44.42.47.47,0,0,1,.09-.06l.12-.06.24.11-.42.22Z" fill="#fff"/><path d="M25.8,5.41l-.12-.12a.53.53,0,0,0,.26,0c.06,0,0-.08-.05-.12a.34.34,0,0,0-.34,0l-.2-.1c.11,0,.08-.1,0-.15s-.16-.06-.21,0,0,.06,0,.11l-.24-.05c0-.08,0-.14,0-.18a.67.67,0,0,1,.55.07c.12.06.18.12.17.18h0a.69.69,0,0,1,.42.08c.23.12.25.23.13.3A.6.6,0,0,1,25.8,5.41Z" fill="#fff"/><path d="M26.09,4.69l-.27-.14h0l.15.13.19.18.33-.17.22.1L26.25,5l-.2-.1-.52-.48.17-.08L26.93,5,26.8,5Z" fill="#fff"/></g></g></g></svg>