<?xml version="1.0" encoding="UTF-8"?>
<svg viewBox="0 0 126 21" version="1.1" xmlns="http://www.w3.org/2000/svg" xmlns:xlink="http://www.w3.org/1999/xlink">
    <!-- Generator: Sketch 61.2 (89653) - https://sketch.com -->
    <title>Cashflows Logo White</title>
    <desc>Created with Sketch.</desc>
    <g id="Overview" stroke="none" stroke-width="1" fill="none" fill-rule="evenodd">
        <g id="Portal-Transactions---Redesign" transform="translate(-16.000000, -16.000000)" fill="#400080" fill-rule="nonzero">
            <g id="CASHFLOWS-LOGO-MIDNIGHT-INDIGO_RGB[1]" transform="translate(16.000000, 16.000000)">
                <path d="M86.3913876,17.9316204 L86.3913876,17.9316204 C83.738756,17.9917847 81.508134,15.886034 81.3875598,13.2388046 C81.4478469,10.5915751 83.6784689,8.48582445 86.3913876,8.54598876 L86.3913876,8.54598876 C89.0440191,8.48582445 91.2746411,10.5915751 91.3952153,13.2388046 C91.2746411,15.9461983 89.0440191,17.9917847 86.3913876,17.9316204 M86.3913876,5.47760918 L86.3913876,5.47760918 C81.8095694,5.47760918 78.1320574,8.9671389 78.1320574,13.2388046 C78.1320574,17.5104703 81.8095694,21 86.3913876,21 L86.3913876,21 C90.9732057,21 94.6507177,17.5104703 94.6507177,13.2388046 C94.6507177,8.9671389 90.9129187,5.47760918 86.3913876,5.47760918 M10.1885167,3.4921871 C12.7205742,3.4921871 14.4688995,4.6353089 15.4334928,6.86138821 C15.4937799,6.98171682 15.6143541,7.04188112 15.6746411,6.98171682 L18.8698565,6.19958084 C18.9904306,6.19958084 19.0507177,6.07925223 19.0507177,5.95892362 C19.0507177,5.95892362 19.0507177,5.95892362 19.0507177,5.95892362 C18.0258373,2.16857238 14.830622,0.00265737705 10.1885167,0.00265737705 C7.53588517,-0.0575069285 4.88325359,0.90512196 2.95406699,2.77021543 C0.964593301,4.5751446 0,7.16220973 0,10.4110822 C0,13.6599547 0.964593301,16.1868556 2.95406699,18.051949 C4.88325359,19.8568782 7.53588517,20.8796714 10.1885167,20.8195071 C14.7703349,20.8195071 18.0258373,18.6535921 19.1110048,14.8632408 C19.1110048,14.7429122 19.0507177,14.6225836 18.9301435,14.6225836 C18.9301435,14.6225836 18.9301435,14.6225836 18.9301435,14.6225836 L15.7349282,13.8404476 C15.6143541,13.8404476 15.4937799,13.8404476 15.4937799,13.9607763 C14.5291866,16.1868556 12.7808612,17.3299774 10.2488038,17.3299774 C8.62105263,17.3901417 6.99330144,16.7283343 5.84784689,15.5250482 C4.70239234,14.3217621 4.09952153,12.6371615 4.09952153,10.4110822 C4.09952153,8.18500293 4.70239234,6.44023807 5.84784689,5.29711626 C6.93301435,4.09383015 8.56076555,3.43202279 10.1885167,3.4921871 M43.2258373,12.7574901 C42.8641148,12.5769972 42.5023923,12.3965043 42.1406699,12.2160114 L40.8143541,11.7948613 L39.6688995,11.4338754 C38.7043062,11.0728896 38.1617225,10.5915751 38.1617225,9.98993209 C38.2220096,9.26796043 38.7645933,8.72648168 39.4880383,8.78664598 C39.5483254,8.78664598 39.5483254,8.78664598 39.6086124,8.78664598 C40.5129187,8.78664598 41.4172249,9.20779612 42.0200957,9.86960348 C42.1406699,9.92976779 42.261244,9.92976779 42.3818182,9.86960348 L44.3110048,8.18500293 C44.3712919,8.12483862 44.4315789,8.00451001 44.3712919,7.8841814 C43.2258373,6.44023807 41.477512,5.59793779 39.6086124,5.65810209 C38.2822967,5.59793779 37.0162679,6.01908793 36.0516746,6.92155251 C35.1473684,7.64352418 34.6650718,8.78664598 34.6650718,9.92976779 C34.6650718,12.0355185 35.8105263,13.118476 37.8,13.9006119 C38.4028708,14.1412692 39.4880383,14.4420907 39.9703349,14.6827479 C40.2717703,14.7429122 40.5732057,14.8632408 40.8143541,15.0437338 C41.2966507,15.2242267 41.6583732,15.6453768 41.6583732,16.1266913 C41.6583732,17.2096488 40.9952153,17.6909632 39.7894737,17.6909632 C38.4028708,17.6909632 37.3779904,16.9689915 36.7751196,15.5250482 C36.7148325,15.4047196 36.5942584,15.3445553 36.4736842,15.4047196 C36.4736842,15.4047196 36.4736842,15.4047196 36.4736842,15.4047196 L33.7607656,16.7884986 C33.6401914,16.8486629 33.6401914,16.9689915 33.6401914,17.0291558 C33.6401914,17.0291558 33.6401914,17.0291558 33.6401914,17.0291558 C34.1827751,18.051949 34.9062201,18.9544136 35.8708134,19.616221 C37.0162679,20.3983569 38.3425837,20.8195071 39.7291866,20.8195071 C41.1760766,20.8796714 42.6229665,20.3983569 43.708134,19.3755638 C44.6727273,18.4730992 45.2755981,17.2096488 45.215311,15.886034 C45.215311,14.9835694 44.8535885,14.1412692 44.2507177,13.4794618 C44.0095694,13.1786403 43.6478469,12.9379831 43.2258373,12.7574901 M54.9818182,5.7182664 C53.1129187,5.65810209 51.3645933,6.50040237 50.2191388,8.00451001 C50.1588517,8.06467432 50.0985646,8.06467432 50.0985646,8.06467432 C50.0382775,8.06467432 50.0382775,8.00451001 50.0382775,7.9443457 L50.0382775,0.183150294 C50.0382775,0.122985988 49.9177033,0.00265737705 49.7971292,0.00265737705 C49.7971292,0.00265737705 49.7971292,0.00265737705 49.7971292,0.00265737705 L46.4210526,0.00265737705 C46.3004785,0.00265737705 46.1799043,0.122985988 46.1799043,0.243314599 L46.1799043,20.3983569 C46.1799043,20.5186856 46.3004785,20.6390142 46.4210526,20.6390142 C46.4210526,20.6390142 46.4210526,20.6390142 46.4210526,20.6390142 L49.7971292,20.6390142 C49.9177033,20.6390142 50.0382775,20.5788499 50.0382775,20.4585213 C50.0382775,20.4585213 50.0382775,20.4585213 50.0382775,20.4585213 L50.0382775,14.502255 C50.0382775,10.8322324 51.7263158,8.90697459 53.7157895,8.90697459 C55.2832536,8.90697459 56.0066986,9.74927487 56.0066986,11.4940397 L56.0066986,20.4585213 C56.0066986,20.5788499 56.1272727,20.6991785 56.2478469,20.6991785 C56.2478469,20.6991785 56.2478469,20.6991785 56.2478469,20.6991785 L59.6239234,20.6991785 C59.7444976,20.6991785 59.8650718,20.5788499 59.8650718,20.5186856 C59.8650718,20.5186856 59.8650718,20.5186856 59.8650718,20.5186856 L59.8650718,10.2907536 C59.8047847,7.22237404 57.9358852,5.7182664 54.9818182,5.7182664 M76.7454545,0.00265737705 L67.5818182,0.00265737705 C64.2660287,0.00265737705 62.2162679,1.68725793 62.2162679,5.17678765 L62.2162679,5.89875932 L60.8899522,5.89875932 C60.769378,5.89875932 60.6488038,6.01908793 60.6488038,6.13941654 C60.6488038,6.13941654 60.6488038,6.13941654 60.6488038,6.13941654 L60.6488038,8.78664598 C60.6488038,8.90697459 60.769378,9.0273032 60.8899522,9.0273032 L62.1559809,9.0273032 L62.1559809,20.3983569 C62.1559809,20.5186856 62.276555,20.6390142 62.3971292,20.6390142 C62.3971292,20.6390142 62.3971292,20.6390142 62.3971292,20.6390142 L65.7732057,20.6390142 C65.8937799,20.6390142 66.0143541,20.5788499 66.0143541,20.4585213 C66.0143541,20.4585213 66.0143541,20.4585213 66.0143541,20.4585213 L66.0143541,9.0273032 L70.415311,9.0273032 C70.5358852,9.0273032 70.6564593,8.9671389 70.6564593,8.78664598 L70.6564593,6.13941654 C70.6564593,6.01908793 70.5358852,5.89875932 70.415311,5.89875932 C70.415311,5.89875932 70.415311,5.89875932 70.415311,5.89875932 L66.0143541,5.89875932 L66.0143541,4.93613043 C66.0143541,3.73284432 66.6172249,3.13120126 67.7626794,3.13120126 L73.369378,3.13120126 L73.369378,20.3983569 C73.369378,20.5186856 73.4899522,20.6390142 73.6105263,20.6390142 C73.6105263,20.6390142 73.6105263,20.6390142 73.6105263,20.6390142 L76.9866029,20.6390142 C77.107177,20.6390142 77.2277512,20.5788499 77.2277512,20.4585213 C77.2277512,20.4585213 77.2277512,20.4585213 77.2277512,20.4585213 L77.2277512,0.423807516 C77.1674641,0.183150294 76.9866029,0.00265737705 76.7454545,0.00265737705 C76.7454545,0.00265737705 76.7454545,0.00265737705 76.7454545,0.00265737705 M115.2689,5.95892362 L111.892823,5.95892362 C111.772249,5.95892362 111.711962,6.01908793 111.651675,6.13941654 L108.999043,15.6453768 C108.999043,15.7055411 108.938756,15.7657054 108.878469,15.7055411 C108.818182,15.7055411 108.818182,15.6453768 108.818182,15.6453768 L106.346411,6.13941654 C106.346411,6.01908793 106.225837,5.95892362 106.105263,5.95892362 L102.849761,5.95892362 C102.729187,5.95892362 102.6689,6.01908793 102.608612,6.13941654 L100.136842,15.6453768 C100.136842,15.7055411 100.076555,15.7657054 100.016268,15.7055411 C99.9559809,15.7055411 99.9559809,15.6453768 99.9559809,15.6453768 L97.3033493,6.13941654 C97.3033493,6.01908793 97.1827751,5.95892362 97.062201,5.95892362 L93.6861244,5.95892362 C93.5655502,5.95892362 93.4449761,6.01908793 93.4449761,6.13941654 C93.4449761,6.13941654 93.4449761,6.19958084 93.4449761,6.19958084 L98.2679426,20.3983569 C98.3282297,20.4585213 98.3885167,20.5186856 98.5090909,20.5186856 L101.583732,20.5186856 C101.704306,20.5186856 101.764593,20.4585213 101.82488,20.3381926 L104.477512,11.0127253 L107.130144,20.3381926 C107.130144,20.4585213 107.250718,20.5186856 107.371292,20.5186856 L110.445933,20.5186856 C110.566507,20.5186856 110.626794,20.4585213 110.687081,20.3983569 L115.510048,6.19958084 C115.570335,6.07925223 115.449761,5.95892362 115.329187,5.89875932 C115.329187,5.95892362 115.329187,5.95892362 115.2689,5.95892362 M125.035407,13.5396261 C124.733971,13.2388046 124.372249,12.9379831 123.950239,12.7574901 C123.588517,12.5769972 123.226794,12.3965043 122.865072,12.2160114 L121.538756,11.7948613 L120.393301,11.4338754 C119.428708,11.0728896 118.886124,10.5915751 118.886124,9.98993209 C118.946411,9.26796043 119.488995,8.72648168 120.21244,8.78664598 C120.272727,8.78664598 120.272727,8.78664598 120.333014,8.78664598 C121.237321,8.78664598 122.141627,9.20779612 122.744498,9.86960348 C122.865072,9.92976779 122.985646,9.92976779 123.045933,9.86960348 L125.035407,8.18500293 C125.095694,8.12483862 125.095694,8.00451001 125.035407,7.8841814 C123.889952,6.44023807 122.141627,5.59793779 120.272727,5.65810209 C118.946411,5.59793779 117.680383,6.01908793 116.715789,6.92155251 C115.811483,7.64352418 115.329187,8.78664598 115.329187,9.92976779 C115.329187,12.0355185 116.474641,13.118476 118.464115,13.9006119 C119.066986,14.1412692 120.152153,14.4420907 120.63445,14.6827479 C120.935885,14.7429122 121.237321,14.8632408 121.478469,15.0437338 C121.960766,15.1640624 122.322488,15.6453768 122.382775,16.1868556 C122.382775,17.2096488 121.719617,17.7511275 120.453589,17.7511275 C119.066986,17.7511275 118.042105,17.0291558 117.439234,15.5852125 C117.378947,15.4648839 117.258373,15.4047196 117.137799,15.4648839 C117.137799,15.4648839 117.137799,15.4648839 117.137799,15.4648839 L114.485167,16.7884986 C114.364593,16.8486629 114.364593,16.9689915 114.364593,17.0291558 C114.364593,17.0291558 114.364593,17.0291558 114.364593,17.0291558 C114.907177,18.051949 115.630622,18.9544136 116.595215,19.616221 C117.74067,20.3983569 119.066986,20.8195071 120.453589,20.8195071 C121.900478,20.8796714 123.347368,20.3983569 124.432536,19.3755638 C125.397129,18.4730992 126,17.2096488 126,15.886034 C126,15.0437338 125.638278,14.2014335 125.035407,13.5396261 M28.9980861,14.7429122 C28.9980861,15.5852125 28.6363636,16.4275128 27.9129187,16.9088272 C27.1894737,17.450306 26.2851675,17.7511275 25.3808612,17.7511275 C24.9588517,17.8112918 24.476555,17.6307989 24.1751196,17.3299774 C23.9339713,17.0893201 23.75311,16.7283343 23.75311,16.3071842 C23.75311,15.0437338 24.6574163,14.4420907 26.4057416,14.4420907 L28.937799,14.4420907 L28.937799,14.7429122 L28.9980861,14.7429122 Z M26.2851675,5.7182664 C24.8985646,5.65810209 23.5119617,6.07925223 22.3665072,6.86138821 C21.4019139,7.52319557 20.738756,8.48582445 20.4373206,9.62894626 C20.4373206,9.74927487 20.4976077,9.86960348 20.5578947,9.86960348 C20.5578947,9.86960348 20.5578947,9.86960348 20.5578947,9.86960348 L23.3913876,10.4712465 C23.5119617,10.4712465 23.6325359,10.4712465 23.6325359,10.3509179 C24.0545455,9.32812473 24.9588517,8.84681029 26.2248804,8.84681029 C28.0334928,8.84681029 28.937799,9.56878195 28.937799,11.0127253 L28.937799,11.6745326 L26.3454545,11.6745326 C24.6574163,11.6143683 22.969378,12.0355185 21.522488,12.9981474 C20.3770335,13.7802833 19.6535885,15.1038981 19.7138756,16.4876771 C19.6535885,17.7511275 20.1358852,18.9544136 21.0401914,19.7967139 C22.0047847,20.5788499 23.2105263,21 24.4162679,20.9398357 C26.2248804,21 28.0334928,20.217864 29.2392344,18.834085 L29.6009569,20.5186856 C29.6009569,20.6390142 29.7215311,20.6991785 29.7818182,20.6991785 L32.5550239,20.6991785 C32.6755981,20.6991785 32.7358852,20.6390142 32.7358852,20.5186856 C32.7358852,20.5186856 32.7358852,20.5186856 32.7358852,20.5186856 L32.7358852,11.8550256 C32.8564593,7.76385279 30.6258373,5.7182664 26.2851675,5.7182664" id="Cashflows-Logo-White"></path>
            </g>
        </g>
    </g>
</svg>